<svg width="35" height="35" viewBox="0 0 35 35" fill="none" xmlns="http://www.w3.org/2000/svg">
<rect width="35" height="35" fill="#D9D9D9"/>
<path d="M27 25.5357C27 26.7197 26.6708 27.8552 26.0847 28.6924C25.4987 29.5297 24.7038 30 23.875 30H10.125C9.2962 30 8.50134 29.5297 7.91529 28.6924C7.32924 27.8552 7 26.7197 7 25.5357V9.46429C7 8.28028 7.32924 7.14477 7.91529 6.30756C8.50134 5.47034 9.2962 5 10.125 5H23.875C24.7038 5 25.4987 5.47034 26.0847 6.30756C26.6708 7.14477 27 8.28028 27 9.46429V25.5357ZM23.875 8.57142H17H10.125C9.95932 8.57179 9.8005 8.66598 9.68334 8.83334C9.56619 9.00071 9.50026 9.2276 9.5 9.46429V25.5357C9.50026 25.7724 9.56619 25.9993 9.68334 26.1667C9.8005 26.334 9.95932 26.4282 10.125 26.4286H23.875C24.0407 26.4282 24.1995 26.334 24.3167 26.1667C24.4338 25.9993 24.4997 25.7724 24.5 25.5357V9.46429C24.4997 9.2276 24.4338 9.00071 24.3167 8.83334C24.1995 8.66598 24.0407 8.57179 23.875 8.57142ZM10.75 24.6429L14.5 19.2857L15.75 21.0714L19.5 15.7143L23.25 24.6429H10.75Z" fill="black"/>
</svg>
