<svg width="225" height="400" viewBox="0 0 225 400" fill="none" xmlns="http://www.w3.org/2000/svg">
<path d="M0 0H225V400H0V0Z" fill="white"/>
<path d="M0 0H225V160H0V0Z" fill="url(#paint0_linear_36_177)"/>
<circle cx="5.5" cy="6.5" r="2.5" fill="#F6A2A0"/>
<circle cx="50.5" cy="20.5" r="2.5" fill="#F6A2A0"/>
<circle cx="32.5" cy="20.5" r="2.5" fill="#F6A2A0"/>
<circle cx="14.5" cy="20.5" r="2.5" fill="#F6A2A0"/>
<circle cx="50.5" cy="20.5" r="2.5" fill="#F6A2A0"/>
<circle cx="32.5" cy="20.5" r="2.5" fill="#F6A2A0"/>
<circle cx="14.5" cy="20.5" r="2.5" fill="#F6A2A0"/>
<circle cx="212.5" cy="20.5" r="2.5" fill="#F6A2A0"/>
<circle cx="194.5" cy="20.5" r="2.5" fill="#F6A2A0"/>
<circle cx="176.5" cy="20.5" r="2.5" fill="#F6A2A0"/>
<circle cx="158.5" cy="20.5" r="2.5" fill="#F6A2A0"/>
<circle cx="140.5" cy="20.5" r="2.5" fill="#F6A2A0"/>
<circle cx="122.5" cy="20.5" r="2.5" fill="#F6A2A0"/>
<circle cx="104.5" cy="20.5" r="2.5" fill="#F6A2A0"/>
<circle cx="86.5" cy="20.5" r="2.5" fill="#F6A2A0"/>
<circle cx="68.5" cy="20.5" r="2.5" fill="#F6A2A0"/>
<circle cx="221.5" cy="6.5" r="2.5" fill="#F6A2A0"/>
<circle cx="203.5" cy="6.5" r="2.5" fill="#F6A2A0"/>
<circle cx="185.5" cy="6.5" r="2.5" fill="#F6A2A0"/>
<circle cx="167.5" cy="6.5" r="2.5" fill="#F6A2A0"/>
<circle cx="149.5" cy="6.5" r="2.5" fill="#F6A2A0"/>
<circle cx="131.5" cy="6.5" r="2.5" fill="#F6A2A0"/>
<circle cx="113.5" cy="6.5" r="2.5" fill="#F6A2A0"/>
<circle cx="95.5" cy="6.5" r="2.5" fill="#F6A2A0"/>
<circle cx="77.5" cy="6.5" r="2.5" fill="#F6A2A0"/>
<circle cx="59.5" cy="6.5" r="2.5" fill="#F6A2A0"/>
<circle cx="41.5" cy="6.5" r="2.5" fill="#F6A2A0"/>
<circle cx="23.5" cy="6.5" r="2.5" fill="#F6A2A0"/>
<circle cx="4.5" cy="118.5" r="2.5" fill="#EFEAEB"/>
<circle cx="49.5" cy="132.5" r="2.5" fill="#EFEAEB"/>
<circle cx="31.5" cy="132.5" r="2.5" fill="#EFEAEB"/>
<circle cx="13.5" cy="132.5" r="2.5" fill="#EFEAEB"/>
<circle cx="49.5" cy="132.5" r="2.5" fill="#EFEAEB"/>
<circle cx="31.5" cy="132.5" r="2.5" fill="#EFEAEB"/>
<circle cx="13.5" cy="132.5" r="2.5" fill="#EFEAEB"/>
<circle cx="211.5" cy="132.5" r="2.5" fill="#EFEAEB"/>
<circle cx="193.5" cy="132.5" r="2.5" fill="#EFEAEB"/>
<circle cx="175.5" cy="132.5" r="2.5" fill="#EFEAEB"/>
<circle cx="157.5" cy="132.5" r="2.5" fill="#EFEAEB"/>
<circle cx="139.5" cy="132.5" r="2.5" fill="#EFEAEB"/>
<circle cx="121.5" cy="132.5" r="2.5" fill="#EFEAEB"/>
<circle cx="103.5" cy="132.5" r="2.5" fill="#EFEAEB"/>
<circle cx="85.5" cy="132.5" r="2.5" fill="#EFEAEB"/>
<circle cx="67.5" cy="132.5" r="2.5" fill="#EFEAEB"/>
<circle cx="220.5" cy="118.5" r="2.5" fill="#EFEAEB"/>
<circle cx="202.5" cy="118.5" r="2.5" fill="#EFEAEB"/>
<circle cx="184.5" cy="118.5" r="2.5" fill="#EFEAEB"/>
<circle cx="166.5" cy="118.5" r="2.5" fill="#EFEAEB"/>
<circle cx="148.5" cy="118.5" r="2.5" fill="#EFEAEB"/>
<circle cx="130.5" cy="118.5" r="2.5" fill="#EFEAEB"/>
<circle cx="112.5" cy="118.5" r="2.5" fill="#EFEAEB"/>
<circle cx="94.5" cy="118.5" r="2.5" fill="#EFEAEB"/>
<circle cx="76.5" cy="118.5" r="2.5" fill="#EFEAEB"/>
<circle cx="58.5" cy="118.5" r="2.5" fill="#EFEAEB"/>
<circle cx="40.5" cy="118.5" r="2.5" fill="#EFEAEB"/>
<circle cx="22.5" cy="118.5" r="2.5" fill="#EFEAEB"/>
<circle cx="5.5" cy="62.5" r="2.5" fill="#E3BBBA"/>
<circle cx="50.5" cy="76.5" r="2.5" fill="#E3BBBA"/>
<circle cx="32.5" cy="76.5" r="2.5" fill="#E3BBBA"/>
<circle cx="14.5" cy="76.5" r="2.5" fill="#E3BBBA"/>
<circle cx="50.5" cy="76.5" r="2.5" fill="#E3BBBA"/>
<circle cx="32.5" cy="76.5" r="2.5" fill="#E3BBBA"/>
<circle cx="14.5" cy="76.5" r="2.5" fill="#E3BBBA"/>
<circle cx="212.5" cy="76.5" r="2.5" fill="#E3BBBA"/>
<circle cx="194.5" cy="76.5" r="2.5" fill="#E3BBBA"/>
<circle cx="176.5" cy="76.5" r="2.5" fill="#E3BBBA"/>
<circle cx="158.5" cy="76.5" r="2.5" fill="#E3BBBA"/>
<circle cx="140.5" cy="76.5" r="2.5" fill="#E3BBBA"/>
<circle cx="122.5" cy="76.5" r="2.5" fill="#E3BBBA"/>
<circle cx="104.5" cy="76.5" r="2.5" fill="#E3BBBA"/>
<circle cx="86.5" cy="76.5" r="2.5" fill="#E3BBBA"/>
<circle cx="68.5" cy="76.5" r="2.5" fill="#E3BBBA"/>
<circle cx="221.5" cy="62.5" r="2.5" fill="#E3BBBA"/>
<circle cx="203.5" cy="62.5" r="2.5" fill="#E3BBBA"/>
<circle cx="185.5" cy="62.5" r="2.5" fill="#E3BBBA"/>
<circle cx="167.5" cy="62.5" r="2.5" fill="#E3BBBA"/>
<circle cx="149.5" cy="62.5" r="2.5" fill="#E3BBBA"/>
<circle cx="131.5" cy="62.5" r="2.5" fill="#E3BBBA"/>
<circle cx="113.5" cy="62.5" r="2.5" fill="#E3BBBA"/>
<circle cx="95.5" cy="62.5" r="2.5" fill="#E3BBBA"/>
<circle cx="77.5" cy="62.5" r="2.5" fill="#E3BBBA"/>
<circle cx="59.5" cy="62.5" r="2.5" fill="#E3BBBA"/>
<circle cx="41.5" cy="62.5" r="2.5" fill="#E3BBBA"/>
<circle cx="23.5" cy="62.5" r="2.5" fill="#E3BBBA"/>
<circle cx="4.5" cy="90.5" r="2.5" fill="#E3BBBA"/>
<circle cx="49.5" cy="104.5" r="2.5" fill="#EFEAEB"/>
<circle cx="31.5" cy="104.5" r="2.5" fill="#EFEAEB"/>
<circle cx="13.5" cy="104.5" r="2.5" fill="#EFEAEB"/>
<circle cx="49.5" cy="104.5" r="2.5" fill="#EFEAEB"/>
<circle cx="31.5" cy="104.5" r="2.5" fill="#EFEAEB"/>
<circle cx="13.5" cy="104.5" r="2.5" fill="#EFEAEB"/>
<circle cx="211.5" cy="104.5" r="2.5" fill="#EFEAEB"/>
<circle cx="193.5" cy="104.5" r="2.5" fill="#EFEAEB"/>
<circle cx="175.5" cy="104.5" r="2.5" fill="#EFEAEB"/>
<circle cx="157.5" cy="104.5" r="2.5" fill="#EFEAEB"/>
<circle cx="139.5" cy="104.5" r="2.5" fill="#EFEAEB"/>
<circle cx="121.5" cy="104.5" r="2.5" fill="#EFEAEB"/>
<circle cx="103.5" cy="104.5" r="2.5" fill="#EFEAEB"/>
<circle cx="85.5" cy="104.5" r="2.5" fill="#EFEAEB"/>
<circle cx="67.5" cy="104.5" r="2.5" fill="#EFEAEB"/>
<circle cx="220.5" cy="90.5" r="2.5" fill="#E3BBBA"/>
<circle cx="202.5" cy="90.5" r="2.5" fill="#E3BBBA"/>
<circle cx="184.5" cy="90.5" r="2.5" fill="#E3BBBA"/>
<circle cx="166.5" cy="90.5" r="2.5" fill="#E3BBBA"/>
<circle cx="148.5" cy="90.5" r="2.5" fill="#E3BBBA"/>
<circle cx="130.5" cy="90.5" r="2.5" fill="#E3BBBA"/>
<circle cx="112.5" cy="90.5" r="2.5" fill="#E3BBBA"/>
<circle cx="94.5" cy="90.5" r="2.5" fill="#E3BBBA"/>
<circle cx="76.5" cy="90.5" r="2.5" fill="#E3BBBA"/>
<circle cx="58.5" cy="90.5" r="2.5" fill="#E3BBBA"/>
<circle cx="40.5" cy="90.5" r="2.5" fill="#E3BBBA"/>
<circle cx="22.5" cy="90.5" r="2.5" fill="#E3BBBA"/>
<circle cx="5.5" cy="34.5" r="2.5" fill="#F6A2A0"/>
<circle cx="50.5" cy="48.5" r="2.5" fill="#F6A2A0"/>
<circle cx="32.5" cy="48.5" r="2.5" fill="#F6A2A0"/>
<circle cx="14.5" cy="48.5" r="2.5" fill="#F6A2A0"/>
<circle cx="50.5" cy="48.5" r="2.5" fill="#F6A2A0"/>
<circle cx="32.5" cy="48.5" r="2.5" fill="#F6A2A0"/>
<circle cx="14.5" cy="48.5" r="2.5" fill="#F6A2A0"/>
<circle cx="212.5" cy="48.5" r="2.5" fill="#F6A2A0"/>
<circle cx="194.5" cy="48.5" r="2.5" fill="#F6A2A0"/>
<circle cx="176.5" cy="48.5" r="2.5" fill="#F6A2A0"/>
<circle cx="158.5" cy="48.5" r="2.5" fill="#F6A2A0"/>
<circle cx="140.5" cy="48.5" r="2.5" fill="#F6A2A0"/>
<circle cx="122.5" cy="48.5" r="2.5" fill="#F6A2A0"/>
<circle cx="104.5" cy="48.5" r="2.5" fill="#F6A2A0"/>
<circle cx="86.5" cy="48.5" r="2.5" fill="#F6A2A0"/>
<circle cx="68.5" cy="48.5" r="2.5" fill="#F6A2A0"/>
<circle cx="221.5" cy="34.5" r="2.5" fill="#F6A2A0"/>
<circle cx="203.5" cy="34.5" r="2.5" fill="#F6A2A0"/>
<circle cx="185.5" cy="34.5" r="2.5" fill="#F6A2A0"/>
<circle cx="167.5" cy="34.5" r="2.5" fill="#F6A2A0"/>
<circle cx="149.5" cy="34.5" r="2.5" fill="#F6A2A0"/>
<circle cx="131.5" cy="34.5" r="2.5" fill="#F6A2A0"/>
<circle cx="113.5" cy="34.5" r="2.5" fill="#F6A2A0"/>
<circle cx="95.5" cy="34.5" r="2.5" fill="#F6A2A0"/>
<circle cx="77.5" cy="34.5" r="2.5" fill="#F6A2A0"/>
<circle cx="59.5" cy="34.5" r="2.5" fill="#F6A2A0"/>
<circle cx="41.5" cy="34.5" r="2.5" fill="#F6A2A0"/>
<circle cx="23.5" cy="34.5" r="2.5" fill="#F6A2A0"/>
<circle cx="5.5" cy="146.5" r="2.5" fill="#EFEAEB"/>
<circle cx="221.5" cy="146.5" r="2.5" fill="#EFEAEB" fill-opacity="0.68"/>
<circle cx="203.5" cy="146.5" r="2.5" fill="#EFEAEB"/>
<circle cx="185.5" cy="146.5" r="2.5" fill="#EFEAEB"/>
<circle cx="167.5" cy="146.5" r="2.5" fill="#EFEAEB"/>
<circle cx="149.5" cy="146.5" r="2.5" fill="#EFEAEB"/>
<circle cx="131.5" cy="146.5" r="2.5" fill="#EFEAEB"/>
<circle cx="113.5" cy="146.5" r="2.5" fill="#EFEAEB"/>
<circle cx="95.5" cy="146.5" r="2.5" fill="#EFEAEB"/>
<circle cx="77.5" cy="146.5" r="2.5" fill="#EFEAEB"/>
<circle cx="59.5" cy="146.5" r="2.5" fill="#EFEAEB"/>
<circle cx="41.5" cy="146.5" r="2.5" fill="#EFEAEB"/>
<circle cx="23.5" cy="146.5" r="2.5" fill="#EFEAEB"/>
<defs>
<linearGradient id="paint0_linear_36_177" x1="103" y1="4" x2="103" y2="164" gradientUnits="userSpaceOnUse">
<stop stop-color="#FDD1CE" stop-opacity="0.84"/>
<stop offset="0.503125" stop-color="#FDDCDA" stop-opacity="0"/>
<stop offset="1" stop-color="#FCFBFB" stop-opacity="0.25"/>
</linearGradient>
</defs>
</svg>
