<svg width="70" height="70" viewBox="0 0 70 70" fill="none" xmlns="http://www.w3.org/2000/svg">
<rect width="70" height="70" rx="15" fill="#D52222"/>
<path fill-rule="evenodd" clip-rule="evenodd" d="M35.4785 31C31.3441 31 27.9878 34.3761 27.9878 38.5349C27.9878 42.6936 31.3441 46.0698 35.4785 46.0698C39.6128 46.0698 42.9691 42.6936 42.9691 38.5349C42.9691 34.3761 39.6128 31 35.4785 31ZM35.4785 32.2558C38.9237 32.2558 41.7207 35.0693 41.7207 38.5349C41.7207 42.0004 38.9237 44.8139 35.4785 44.8139C32.0333 44.8139 29.2362 42.0004 29.2362 38.5349C29.2362 35.0693 32.0333 32.2558 35.4785 32.2558Z" fill="white"/>
<path fill-rule="evenodd" clip-rule="evenodd" d="M35.4779 33.5117C32.7218 33.5117 30.4844 35.7624 30.4844 38.5347C30.4844 41.307 32.7218 43.5579 35.4779 43.5579C38.2339 43.5579 40.4717 41.307 40.4717 38.5347C40.4717 35.7624 38.2339 33.5117 35.4779 33.5117ZM35.4779 34.767C37.5451 34.767 39.2235 36.4553 39.2235 38.5347C39.2235 40.6141 37.5451 42.3024 35.4779 42.3024C33.4107 42.3024 31.7325 40.6141 31.7325 38.5347C31.7325 36.4553 33.4107 34.767 35.4779 34.767Z" fill="white"/>
<path fill-rule="evenodd" clip-rule="evenodd" d="M29.8601 33.5117H24.8663C23.8319 33.5117 22.9937 34.3555 22.9937 35.3954V41.6748C22.9937 42.7147 23.8319 43.5588 24.8663 43.5588H29.8601C30.2045 43.5588 30.4843 43.2768 30.4843 42.9306C30.4843 42.5844 30.2045 42.3024 29.8601 42.3024H24.8663C24.5219 42.3024 24.2421 42.0218 24.2421 41.6748V35.3954C24.2421 35.0487 24.5219 34.7681 24.8663 34.7681H29.8601C30.2045 34.7681 30.4843 34.4861 30.4843 34.1399C30.4843 33.7937 30.2045 33.5117 29.8601 33.5117V33.5117Z" fill="white"/>
<path fill-rule="evenodd" clip-rule="evenodd" d="M41.0964 43.5578H46.0902C47.1246 43.5578 47.9628 42.7138 47.9628 41.6738V35.3945C47.9628 34.3545 47.1246 33.5107 46.0902 33.5107H41.0964C40.752 33.5107 40.4722 33.7927 40.4722 34.1389C40.4722 34.4851 40.752 34.7671 41.0964 34.7671H46.0902C46.4346 34.7671 46.7144 35.0477 46.7144 35.3945V41.6738C46.7144 42.0208 46.4346 42.3014 46.0902 42.3014H41.0964C40.752 42.3014 40.4722 42.5834 40.4722 42.9296C40.4722 43.2758 40.752 43.5578 41.0964 43.5578V43.5578Z" fill="white"/>
<path fill-rule="evenodd" clip-rule="evenodd" d="M27.5079 26.2791H19.875C18.8393 26.2791 18 27.216 18 28.3721V47.907C18 49.0631 18.8393 50 19.875 50H51.125C52.1607 50 53 49.0631 53 47.907V28.3721C53 27.216 52.1607 26.2791 51.125 26.2791H43.4921C43.2095 26.2791 42.962 26.0676 42.8884 25.7636C42.5159 24.2216 41.856 21.4966 41.856 21.4966C41.854 21.4882 41.8515 21.4797 41.8496 21.4713C41.6052 20.5964 40.8803 20 40.0591 20H30.9413C30.1201 20 29.3952 20.5965 29.1509 21.4713C29.1489 21.4797 29.1464 21.4882 29.1444 21.4966C29.1444 21.4966 28.4846 24.2216 28.1121 25.7636C28.0384 26.0676 27.7909 26.2791 27.5083 26.2791H27.5079ZM27.5079 27.6744C28.3555 27.6744 29.0971 27.0403 29.3179 26.1271L30.3471 21.876C30.4311 21.5895 30.6705 21.3954 30.9409 21.3954H40.0588C40.3261 21.3954 40.5635 21.5851 40.65 21.8663C40.6525 21.876 41.6818 26.1272 41.6818 26.1272C41.9025 27.0404 42.6441 27.6745 43.4918 27.6745H51.1246C51.4695 27.6745 51.7496 27.9872 51.7496 28.3722V47.907C51.7496 48.292 51.4695 48.6047 51.1246 48.6047H19.8746C19.5298 48.6047 19.2496 48.292 19.2496 47.907V28.3722C19.2496 27.9872 19.5298 27.6745 19.8746 27.6745H27.5075L27.5079 27.6744Z" fill="white"/>
<path fill-rule="evenodd" clip-rule="evenodd" d="M41.7204 23.1392H47.3384C47.504 23.1392 47.6631 23.2053 47.7799 23.3236C47.8972 23.4408 47.9627 23.6006 47.9627 23.7671V25.965C47.9627 26.3118 48.2425 26.5927 48.5869 26.5927C48.9313 26.5927 49.2111 26.3118 49.2111 25.965V23.7671C49.2111 23.2675 49.0138 22.7885 48.6624 22.4355C48.3116 22.0818 47.8353 21.8836 47.3384 21.8836H41.7204C41.376 21.8836 41.0962 22.1645 41.0962 22.5115C41.0962 22.8583 41.376 23.1391 41.7204 23.1391L41.7204 23.1392Z" fill="white"/>
<path fill-rule="evenodd" clip-rule="evenodd" d="M29.2358 21.8836H23.6178C23.1209 21.8836 22.6447 22.0818 22.2938 22.4355C21.9424 22.7885 21.7451 23.2675 21.7451 23.7671V25.965C21.7451 26.3118 22.0249 26.5927 22.3693 26.5927C22.7138 26.5927 22.9936 26.3118 22.9936 25.965V23.7671C22.9936 23.6006 23.0591 23.4408 23.1764 23.3236C23.2931 23.2053 23.4523 23.1392 23.6178 23.1392H29.2358C29.5802 23.1392 29.86 22.8583 29.86 22.5115C29.86 22.1645 29.5802 21.8836 29.2358 21.8836L29.2358 21.8836Z" fill="white"/>
<path fill-rule="evenodd" clip-rule="evenodd" d="M39.8476 26.9068C40.0346 26.9068 40.2121 26.8221 40.3308 26.6767C40.4498 26.5303 40.4969 26.3392 40.4593 26.1547L39.832 23.043C39.7732 22.7498 39.5174 22.5398 39.2201 22.5398H31.7358C31.4385 22.5398 31.1826 22.7498 31.1239 23.043L30.4966 26.1547C30.4589 26.3392 30.506 26.5303 30.625 26.6767C30.7437 26.8221 30.9213 26.9068 31.1082 26.9068H39.8476ZM39.0838 25.6513H31.8721L32.246 23.7953H38.7096L39.0838 25.6513Z" fill="white"/>
<path fill-rule="evenodd" clip-rule="evenodd" d="M24.2422 36.0234C24.2422 35.6772 23.9624 35.3955 23.618 35.3955H18.6242C18.2798 35.3955 18 35.6772 18 36.0234V41.047C18 41.3934 18.2798 41.6751 18.6242 41.6751H23.618C23.9624 41.6751 24.2422 41.3934 24.2422 41.047V36.0234ZM22.9938 36.6516V40.4188H19.2484V36.6516H22.9938Z" fill="white"/>
<path fill-rule="evenodd" clip-rule="evenodd" d="M52.9996 36.0234C52.9996 35.6772 52.72 35.3955 52.3753 35.3955H47.3815C47.0371 35.3955 46.7573 35.6772 46.7573 36.0234V41.047C46.7573 41.3934 47.0371 41.6751 47.3815 41.6751H52.3753C52.72 41.6751 52.9996 41.3934 52.9996 41.047V36.0234ZM51.7511 36.6516V40.4188H48.0058V36.6516H51.7511Z" fill="white"/>
</svg>
