<svg width="70" height="70" viewBox="0 0 70 70" fill="none" xmlns="http://www.w3.org/2000/svg">
<rect width="70" height="70" rx="15" fill="#CB328E"/>
<path d="M37.4444 21.8889C37.4444 19.7411 39.1855 18 41.3333 18H49.1111C51.2589 18 53 19.7411 53 21.8889V29.6667C53 31.8144 51.2589 33.5555 49.1111 33.5555H41.3333C39.1855 33.5555 37.4444 31.8144 37.4444 29.6667V21.8889ZM49.1111 21.8889H41.3333V29.6667H49.1111V21.8889ZM18 21.8889C18 19.7411 19.7411 18 21.8889 18H29.6667C31.8144 18 33.5555 19.7411 33.5555 21.8889V49.1111C33.5555 51.2589 31.8144 53 29.6667 53H21.8889C19.7411 53 18 51.2589 18 49.1111V21.8889ZM29.6667 21.8889H21.8889V49.1111H29.6667V21.8889Z" fill="white"/>
<path d="M38.9444 41.3333C38.9444 40.0139 40.0139 38.9444 41.3333 38.9444H49.1111C50.4304 38.9444 51.4999 40.0139 51.4999 41.3333V49.111C51.4999 50.4304 50.4304 51.4999 49.1111 51.4999H41.3333C40.0139 51.4999 38.9444 50.4304 38.9444 49.111V41.3333Z" stroke="white" stroke-width="3" stroke-miterlimit="10" stroke-linecap="round" stroke-linejoin="round"/>
</svg>
