<svg width="70" height="70" viewBox="0 0 70 70" fill="none" xmlns="http://www.w3.org/2000/svg">
<path d="M55 0H15C6.71573 0 0 6.71573 0 15V55C0 63.2843 6.71573 70 15 70H55C63.2843 70 70 63.2843 70 55V15C70 6.71573 63.2843 0 55 0Z" fill="#FF0099"/>
<path d="M40.0167 13H32.125C30.8119 13.0009 29.5405 13.4612 28.5312 14.301C27.5218 15.1409 26.8381 16.3074 26.5984 17.5984C25.4817 17.8064 24.4541 18.3476 23.6509 19.1509C22.8476 19.9541 22.3064 20.9817 22.0984 22.0984C20.8074 22.3381 19.6409 23.0218 18.801 24.0312C17.9612 25.0405 17.5009 26.3119 17.5 27.625V52.375C17.5 53.8668 18.0926 55.2976 19.1475 56.3525C20.2024 57.4074 21.6332 58 23.125 58H38.875C40.1881 57.9991 41.4595 57.5388 42.4688 56.699C43.4782 55.8591 44.1619 54.6926 44.4016 53.4016C45.5183 53.1936 46.5459 52.6524 47.3491 51.8491C48.1524 51.0459 48.6936 50.0183 48.9016 48.9016C50.1926 48.6619 51.3591 47.9782 52.1989 46.9688C53.0388 45.9595 53.4991 44.6881 53.5 43.375V26.5L40.0167 13ZM49.1661 25.375H44.5C43.6052 25.3741 42.7473 25.0182 42.1145 24.3855C41.4818 23.7527 41.1259 22.8948 41.125 22V17.3137L49.1661 25.375ZM38.875 55.75H23.125C22.2302 55.7491 21.3723 55.3932 20.7395 54.7605C20.1068 54.1277 19.7509 53.2698 19.75 52.375V27.625C19.7512 26.9278 19.9681 26.2481 20.3709 25.6791C20.7738 25.11 21.3428 24.6796 22 24.4469V47.875C22 49.3668 22.5926 50.7976 23.6475 51.8525C24.7024 52.9074 26.1332 53.5 27.625 53.5H42.0531C41.8204 54.1572 41.3899 54.7262 40.8209 55.1291C40.2519 55.5319 39.5722 55.7488 38.875 55.75ZM43.375 51.25H27.625C26.7302 51.2491 25.8723 50.8932 25.2395 50.2605C24.6068 49.6277 24.2509 48.7698 24.25 47.875V23.125C24.2505 22.4272 24.467 21.7467 24.8699 21.177C25.2728 20.6073 25.8423 20.1763 26.5 19.9434V43.375C26.5 44.8668 27.0926 46.2976 28.1475 47.3525C29.2024 48.4074 30.6332 49 32.125 49H46.5531C46.3204 49.6572 45.8899 50.2262 45.3209 50.6291C44.7519 51.0319 44.0722 51.2488 43.375 51.25ZM51.25 43.375C51.2491 44.2698 50.8932 45.1277 50.2605 45.7605C49.6277 46.3932 48.7698 46.7491 47.875 46.75H32.125C31.2302 46.7491 30.3723 46.3932 29.7395 45.7605C29.1068 45.1277 28.7509 44.2698 28.75 43.375V18.625C28.7509 17.7302 29.1068 16.8723 29.7395 16.2395C30.3723 15.6068 31.2302 15.2509 32.125 15.25H38.875V22C38.875 23.4918 39.4676 24.9226 40.5225 25.9775C41.5774 27.0324 43.0082 27.625 44.5 27.625H51.25V43.375ZM34.375 32.125C34.375 31.9773 34.4041 31.831 34.4606 31.6945C34.5172 31.558 34.6 31.434 34.7045 31.3295C34.809 31.225 34.933 31.1422 35.0695 31.0856C35.206 31.0291 35.3523 31 35.5 31H40C40.2984 31 40.5845 31.1185 40.7955 31.3295C41.0065 31.5405 41.125 31.8266 41.125 32.125C41.125 32.4234 41.0065 32.7095 40.7955 32.9205C40.5845 33.1315 40.2984 33.25 40 33.25H35.5C35.2016 33.25 34.9155 33.1315 34.7045 32.9205C34.4935 32.7095 34.375 32.4234 34.375 32.125ZM44.5 35.5C44.7984 35.5 45.0845 35.6185 45.2955 35.8295C45.5065 36.0405 45.625 36.3266 45.625 36.625C45.625 36.9234 45.5065 37.2095 45.2955 37.4205C45.0845 37.6315 44.7984 37.75 44.5 37.75H35.5C35.2016 37.75 34.9155 37.6315 34.7045 37.4205C34.4935 37.2095 34.375 36.9234 34.375 36.625C34.375 36.3266 34.4935 36.0405 34.7045 35.8295C34.9155 35.6185 35.2016 35.5 35.5 35.5H44.5ZM45.5916 41.125C45.5916 41.2729 45.5624 41.4193 45.5058 41.5559C45.4491 41.6925 45.3661 41.8166 45.2615 41.9211C45.1568 42.0256 45.0326 42.1084 44.8959 42.1649C44.7592 42.2213 44.6127 42.2502 44.4648 42.25H35.5C35.2016 42.25 34.9155 42.1315 34.7045 41.9205C34.4935 41.7095 34.375 41.4234 34.375 41.125C34.375 40.8266 34.4935 40.5405 34.7045 40.3295C34.9155 40.1185 35.2016 40 35.5 40H44.4648C44.6127 39.9998 44.7592 40.0287 44.8959 40.0851C45.0326 40.1416 45.1568 40.2244 45.2615 40.3289C45.3661 40.4334 45.4491 40.5575 45.5058 40.6941C45.5624 40.8307 45.5916 40.9771 45.5916 41.125Z" fill="white"/>
</svg>
