<svg width="70" height="70" viewBox="0 0 70 70" fill="none" xmlns="http://www.w3.org/2000/svg">
<path d="M55 0H15C6.71573 0 0 6.71573 0 15V55C0 63.2843 6.71573 70 15 70H55C63.2843 70 70 63.2843 70 55V15C70 6.71573 63.2843 0 55 0Z" fill="#0066FF"/>
<rect x="14" y="14" width="43" height="43" rx="9" fill="#0066FF" stroke="white" stroke-width="2"/>
<path d="M31 27C28.239 27 26 29.2367 26 31.9962C26 34.2238 26.875 39.5107 35.488 44.8551C35.6423 44.9499 35.8194 45 36 45C36.1806 45 36.3577 44.9499 36.512 44.8551C45.125 39.5107 46 34.2238 46 31.9962C46 29.2367 43.761 27 41 27C38.239 27 36 30.028 36 30.028C36 30.028 33.761 27 31 27Z" stroke="white" stroke-width="2" stroke-linecap="round" stroke-linejoin="round"/>
<line x1="36" y1="46" x2="36" y2="56" stroke="white" stroke-width="2"/>
<line x1="36" y1="29" x2="36" y2="15" stroke="white" stroke-width="2"/>
<line x1="27" y1="36" x2="15" y2="36" stroke="white" stroke-width="2"/>
<line x1="45" y1="36" x2="57" y2="36" stroke="white" stroke-width="2"/>
</svg>
