<svg width="70" height="70" viewBox="0 0 70 70" fill="none" xmlns="http://www.w3.org/2000/svg">
<rect width="70" height="70" rx="15" fill="#E66900"/>
<g clip-path="url(#clip0_28_52)">
<path fill-rule="evenodd" clip-rule="evenodd" d="M32 23.8334C32 23.292 31.6279 22.8219 31.1015 22.6983C30.5742 22.5735 30.0317 22.8277 29.7901 23.3118L18.1234 46.6451C17.9427 47.0069 17.9612 47.436 18.1737 47.7803C18.3872 48.1245 18.7617 48.3334 19.1664 48.3334H30.8331C31.4771 48.3334 31.9997 47.8107 31.9997 47.1667V23.8334H32ZM41.2093 23.3118C40.9679 22.8277 40.4252 22.5733 39.8979 22.6982C39.3718 22.8219 38.9994 23.292 38.9994 23.8334V47.1667C38.9994 47.8107 39.5221 48.3334 40.1661 48.3334H51.8327C52.2377 48.3334 52.6121 48.1245 52.8255 47.7803C53.0377 47.436 53.0565 47.0068 52.8757 46.6451L41.2091 23.3118H41.2093ZM21.054 45.9998H29.666V28.7751L21.054 45.9998ZM41.3327 45.9998H49.9447L41.3327 28.7751V45.9998Z" fill="white"/>
<path fill-rule="evenodd" clip-rule="evenodd" d="M34.3333 19.1667V51.8333C34.3333 52.4773 34.8559 53 35.4999 53C36.1439 53 36.6666 52.4773 36.6666 51.8333V19.1667C36.6666 18.5227 36.1439 18 35.4999 18C34.8559 18 34.3333 18.5227 34.3333 19.1667Z" fill="white"/>
</g>
<defs>
<clipPath id="clip0_28_52">
<rect width="35" height="35" fill="white" transform="translate(18 18)"/>
</clipPath>
</defs>
</svg>
