<svg width="120" height="120" viewBox="0 0 120 120" fill="none" xmlns="http://www.w3.org/2000/svg">
<circle cx="60" cy="60" r="60" fill="#E5E5E5"/>
<path d="M85.838 39.2549C85.8045 38.5855 85.2417 38.0665 84.5725 38.0873C79.5714 38.1735 69.68 37.3378 61.2992 30.295C60.8395 29.9017 60.1615 29.9017 59.7018 30.295C51.3216 37.3373 41.4306 38.1728 36.4285 38.0873C35.7593 38.0665 35.1965 38.5855 35.163 39.2549C34.6836 51.6312 34.954 67.3257 40.3359 74.6998C45.964 82.442 57.7477 89.0168 60.5001 90C63.2528 89.0047 75.0359 82.4295 80.6643 74.6984C86.0466 67.3243 86.3165 51.6307 85.8377 39.2535L85.838 39.2549ZM71.3387 53.843L58.8302 67.5833C58.4829 67.9564 57.9996 68.1731 57.4906 68.1852H57.4659C56.9689 68.1841 56.4939 67.98 56.151 67.62L49.7 61.0328C48.9874 60.3031 49.0011 59.1338 49.7307 58.4211C50.4603 57.7084 51.6293 57.7221 52.3419 58.4518L57.4165 63.6505L68.6103 51.3603H68.6108C69.2987 50.6179 70.4556 50.5691 71.2044 51.25C71.9526 51.9309 72.0124 53.0881 71.3388 53.843L71.3387 53.843Z" fill="#269454"/>
</svg>
