<svg width="120" height="120" viewBox="0 0 120 120" fill="none" xmlns="http://www.w3.org/2000/svg">
<circle cx="60" cy="60" r="60" fill="#E5E5E5"/>
<g clip-path="url(#clip0_29_63)">
<path d="M43.545 87.9112C42.0975 88.6537 40.455 87.3525 40.7475 85.6912L43.86 67.9537L30.6488 55.3687C29.415 54.1912 30.0563 52.0387 31.71 51.8062L50.0775 49.1962L58.2675 32.97C59.0063 31.5075 61.005 31.5075 61.7438 32.97L69.9338 49.1962L88.3013 51.8062C89.955 52.0387 90.5963 54.1912 89.3588 55.3687L76.1513 67.9537L79.2638 85.6912C79.5563 87.3525 77.9138 88.6537 76.4663 87.9112L60 79.4512L43.5413 87.9112H43.545Z" fill="#F58A2F"/>
</g>
<defs>
<clipPath id="clip0_29_63">
<rect width="60" height="60" fill="white" transform="translate(30 30)"/>
</clipPath>
</defs>
</svg>
