<svg width="70" height="70" viewBox="0 0 70 70" fill="none" xmlns="http://www.w3.org/2000/svg">
<rect width="70" height="70" rx="15" fill="#5B980A"/>
<g clip-path="url(#clip0_28_41)">
<path d="M47.6154 52.9998H23.3844C21.9567 52.9982 20.5883 52.4303 19.5787 51.4211C18.5694 50.4114 18.0015 49.0429 17.9999 47.6153V23.3843C18.0015 21.9566 18.5694 20.5882 19.5787 19.5785C20.5883 18.5693 21.9568 18.0014 23.3844 17.9998H47.6154C49.0431 18.0014 50.4115 18.5693 51.4212 19.5785C52.4304 20.5882 52.9983 21.9567 52.9999 23.3843V47.6153C52.9983 49.043 52.4304 50.4114 51.4212 51.4211C50.4115 52.4303 49.043 52.9982 47.6154 52.9998ZM23.3844 20.6919C22.6706 20.6926 21.9863 20.9766 21.4815 21.4814C20.9767 21.9862 20.6927 22.6704 20.6919 23.3844V47.6153C20.6927 48.3291 20.9767 49.0134 21.4815 49.5182C21.9863 50.0231 22.6705 50.307 23.3844 50.3078H47.6154C48.3292 50.307 49.0135 50.0231 49.5183 49.5182C50.0231 49.0134 50.3071 48.3292 50.3079 47.6153V23.3844C50.3071 22.6705 50.0231 21.9862 49.5183 21.4814C49.0135 20.9766 48.3293 20.6926 47.6154 20.6919H23.3844Z" fill="white"/>
<path d="M42.9037 32.8071C41.6543 32.8071 40.4558 32.311 39.5723 31.4272C38.6885 30.5438 38.1924 29.3452 38.1924 28.0958C38.1924 26.846 38.6885 25.6479 39.5723 24.7641C40.4558 23.8807 41.6543 23.3841 42.9037 23.3841C44.1535 23.3841 45.3516 23.8807 46.2354 24.7641C47.1189 25.6479 47.6154 26.846 47.6154 28.0958C47.6138 29.3448 47.1169 30.5422 46.2338 31.4256C45.3504 32.309 44.1531 32.8059 42.9037 32.8071V32.8071ZM42.9037 26.0762V26.0766C42.3681 26.0766 41.8546 26.2892 41.476 26.6678C41.0974 27.0464 40.8844 27.5603 40.8844 28.0959C40.8844 28.6315 41.0974 29.145 41.476 29.5236C41.8546 29.9022 42.3681 30.1152 42.9037 30.1152C43.4393 30.1152 43.9532 29.9022 44.3318 29.5236C44.7104 29.145 44.923 28.6315 44.923 28.0959C44.9226 27.5603 44.7096 27.0472 44.331 26.6686C43.9524 26.29 43.4393 26.077 42.9037 26.0766L42.9037 26.0762Z" fill="white"/>
<path d="M19.3448 47.6153C18.8432 47.6149 18.3833 47.3353 18.1519 46.8904C17.9204 46.4451 17.9555 45.9084 18.243 45.4974L24.2763 36.8782H24.2767C25.3131 35.4395 26.9766 34.5856 28.7494 34.5817C30.528 34.6014 32.1821 35.499 33.1681 36.9795L36.9668 42.6764L39.4842 39.6554H39.4838C40.4978 38.4368 41.9973 37.7277 43.5823 37.7175C45.1662 37.7131 46.673 38.3994 47.7087 39.5975L52.676 45.3929C53.1599 45.9573 53.0948 46.8072 52.53 47.2911C51.9657 47.775 51.1158 47.71 50.6318 47.1452L45.6646 41.3498C45.1665 40.7251 44.3998 40.3756 43.6011 40.4099C42.8084 40.4155 42.0587 40.77 41.5515 41.3793L37.8802 45.7846C37.6053 46.1068 37.1979 46.2847 36.7748 46.267C36.3504 46.2449 35.9615 46.0232 35.7261 45.6695L30.9276 38.4728H30.928C30.4394 37.7274 29.6096 37.277 28.7187 37.2738L28.6859 37.273C27.8065 37.2671 26.9814 37.6974 26.4825 38.4215L20.4488 47.0408H20.4492C20.1972 47.4016 19.7847 47.6162 19.3449 47.6154L19.3448 47.6153Z" fill="white"/>
</g>
<defs>
<clipPath id="clip0_28_41">
<rect width="35" height="35" fill="white" transform="translate(18 18)"/>
</clipPath>
</defs>
</svg>
