<svg width="120" height="120" viewBox="0 0 120 120" fill="none" xmlns="http://www.w3.org/2000/svg">
<circle cx="60" cy="60" r="60" fill="#E5E5E5"/>
<path d="M72.1228 47.6264C77.0229 47.6264 80.9996 43.6782 80.9996 38.8132C80.9996 33.9482 77.0229 30 72.1228 30C67.2227 30 63.246 33.9482 63.246 38.8132C63.246 39.6591 63.3882 40.4347 63.6012 41.2102L46.8419 53.4783C45.2795 51.9974 43.1495 51.1516 40.8768 51.1516C35.9767 51.1516 32 55.0998 32 59.9648C32 64.8298 35.9767 68.778 40.8768 68.778C43.2203 68.778 45.3508 67.8613 46.9133 66.4513L63.6016 78.7898C63.3886 79.5653 63.2464 80.3409 63.2464 81.1868C63.2464 86.0518 67.2231 90 72.1232 90C77.0233 90 81 86.0518 81 81.1868C81 76.3218 77.0233 72.3736 72.1232 72.3736C69.8505 72.3736 67.7913 73.2196 66.229 74.6301L49.3986 62.1505C49.6117 61.4452 49.6825 60.7405 49.6825 59.9649C49.6825 59.1894 49.5403 58.4841 49.3986 57.7794L66.158 45.3706C67.7203 46.7098 69.8509 47.6265 72.1231 47.6265L72.1228 47.6264Z" fill="#FF0030"/>
</svg>
