<svg width="35" height="35" viewBox="0 0 35 35" fill="none" xmlns="http://www.w3.org/2000/svg">
<rect width="35" height="35" fill="#D9D9D9"/>
<path d="M17 27.1664C18.3187 28.3494 20.0285 29.0025 21.8 29C25.7762 29 29 25.7762 29 21.8C29 18.4454 26.7056 15.626 23.6 14.8268" stroke="black" stroke-width="2" stroke-linejoin="round"/>
<path d="M10.4 14.8268C7.2944 15.626 5 18.4448 5 21.8C5 25.7762 8.2238 29 12.2 29C16.1762 29 19.4 25.7762 19.4 21.8C19.4 20.87 19.2236 19.982 18.9032 19.166" stroke="black" stroke-width="2" stroke-linejoin="round"/>
<path d="M17 19.4C20.9762 19.4 24.2 16.1762 24.2 12.2C24.2 8.2238 20.9762 5 17 5C13.0238 5 9.8 8.2238 9.8 12.2C9.8 16.1762 13.0238 19.4 17 19.4Z" stroke="black" stroke-width="2" stroke-linejoin="round"/>
</svg>
