<svg width="70" height="70" viewBox="0 0 70 70" fill="none" xmlns="http://www.w3.org/2000/svg">
<rect width="70" height="70" rx="15" fill="#2767C7"/>
<path d="M40.8465 34.7832L37.035 29.7877L45.759 18.2006C45.9189 17.9855 46.2243 17.9357 46.446 18.0884C47.9847 19.2056 48.9653 20.9168 49.1416 22.7909C49.3178 24.6653 48.6726 26.5245 47.3682 27.9007L40.8465 34.7832ZM49.9287 47.5365L49.929 47.5362C49.6994 49.0524 48.9256 50.437 47.7478 51.4395C46.5701 52.4421 45.0661 52.9955 43.5094 52.9999C42.8995 52.9977 42.2928 52.9157 41.7051 52.7564C40.8656 52.5319 40.0839 52.1342 39.4127 51.5891C38.4233 50.8021 37.6902 49.7467 37.3036 48.5533C36.9174 47.3602 36.8949 46.0815 37.2392 44.876C37.5702 43.5694 37.1909 42.1872 36.2368 41.2226L35.4905 40.4353L34.7378 41.2298C33.7869 42.1912 33.4094 43.5691 33.7404 44.871C34.2467 46.6397 33.9558 48.5371 32.9414 50.0795C31.9269 51.6221 30.2878 52.66 28.4415 52.9287C28.1203 52.9757 27.7962 52.9996 27.4715 52.9999C25.9852 52.9999 24.5441 52.4949 23.3916 51.5708C22.2 50.6034 21.3922 49.2539 21.1104 47.7585C20.8287 46.2635 21.0908 44.7183 21.851 43.3946C22.9634 41.495 24.9872 40.2894 27.2123 40.2008C28.462 40.1729 29.6312 39.5883 30.3917 38.6116L31.884 36.6293L23.6128 27.9007C22.3084 26.5245 21.6635 24.6652 21.8397 22.7909C22.0159 20.9168 22.9966 19.2056 24.535 18.0884C24.757 17.9357 25.0621 17.9855 25.2222 18.2006L40.5875 38.6086C41.3603 39.5897 42.5415 40.1752 43.8024 40.202C45.6386 40.2856 47.3529 41.1314 48.5205 42.5291C49.6881 43.9271 50.2001 45.7462 49.9291 47.5363L49.9287 47.5365ZM29.5708 43.8225C28.8242 43.2774 27.8883 43.0467 26.969 43.181C26.0496 43.3153 25.2221 43.8038 24.6688 44.539C24.1151 45.2741 23.8808 46.1954 24.0175 47.1006C24.154 48.0058 24.6501 48.8204 25.3968 49.3652C26.1434 49.9104 27.0793 50.1411 27.9986 50.0064C28.918 49.8721 29.7455 49.3833 30.2988 48.6482L30.2994 48.647C30.8515 47.9119 31.0849 46.9908 30.9482 46.0866C30.8117 45.1821 30.3165 44.368 29.5708 43.8226L29.5708 43.8225ZM36.7746 36.4386C36.7746 36.0465 36.6164 35.6706 36.335 35.3935C36.0536 35.1164 35.6717 34.9607 35.2738 34.9607C34.8755 34.9607 34.4937 35.1164 34.2123 35.3935C33.9309 35.6706 33.7726 36.0465 33.7726 36.4386C33.7726 36.8304 33.9309 37.2064 34.2123 37.4834C34.4937 37.7605 34.8755 37.9163 35.2738 37.9163C35.6717 37.9163 36.0536 37.7605 36.335 37.4834C36.6164 37.2064 36.7746 36.8304 36.7746 36.4386ZM46.3071 44.5399C45.5621 43.5504 44.3377 43.0274 43.0949 43.168C41.8521 43.3085 40.7798 44.0912 40.2821 45.2209C39.7843 46.3509 39.9366 47.6563 40.6816 48.6457L40.6826 48.6469L40.6822 48.6472C41.4276 49.6364 42.6521 50.1591 43.8948 50.0186C45.1376 49.8777 46.2099 49.0948 46.7073 47.9647C47.205 46.8347 47.0525 45.5293 46.3071 44.5399V44.5399Z" fill="white"/>
</svg>
