<svg width="35" height="35" viewBox="0 0 35 35" fill="none" xmlns="http://www.w3.org/2000/svg">
<rect width="35" height="35" fill="#D9D9D9"/>
<path d="M17 6C13.8174 6 10.7651 7.26428 8.51471 9.51471C6.26428 11.7651 5 14.8174 5 18C5 21.1826 6.26428 24.2348 8.51471 26.4852C10.7651 28.7357 13.8174 30 17 30C18.197 30.0033 19.3876 29.8243 20.5307 29.4692C20.6775 29.4313 20.81 29.351 20.9115 29.2384L28.2384 21.9115C28.3486 21.8079 28.4283 21.6763 28.4692 21.5307C28.8243 20.3876 29.0033 19.197 29 18C28.9939 14.8193 27.7276 11.7706 25.4785 9.52145C23.2294 7.27234 20.1807 6.0061 17 6V6ZM26.773 20.7692L19.7692 27.773C17.6093 28.383 15.3081 28.2594 13.2261 27.4215C11.144 26.5836 9.39864 25.0788 8.26341 23.1427C7.12817 21.2066 6.66718 18.9487 6.95264 16.7226C7.2381 14.4964 8.25388 12.4279 9.84088 10.8409C11.4279 9.25388 13.4964 8.2381 15.7226 7.95264C17.9487 7.66718 20.2066 8.12817 22.1427 9.26341C24.0788 10.3986 25.5836 12.144 26.4215 14.2261C27.2594 16.3081 27.383 18.6093 26.773 20.7692V20.7692ZM11.4615 15.6923C11.4615 15.4184 11.5427 15.1507 11.6949 14.923C11.847 14.6953 12.0633 14.5179 12.3163 14.4131C12.5693 14.3083 12.8477 14.2809 13.1163 14.3343C13.3849 14.3877 13.6316 14.5196 13.8252 14.7132C14.0188 14.9069 14.1507 15.1536 14.2041 15.4222C14.2576 15.6908 14.2302 15.9692 14.1254 16.2222C14.0206 16.4752 13.8431 16.6914 13.6154 16.8436C13.3877 16.9957 13.12 17.0769 12.8461 17.0769C12.4789 17.0769 12.1267 16.931 11.8671 16.6714C11.6074 16.4117 11.4615 16.0595 11.4615 15.6923ZM19.7692 15.6923C19.7692 15.4184 19.8504 15.1507 20.0026 14.923C20.1547 14.6953 20.3709 14.5179 20.6239 14.4131C20.877 14.3083 21.1554 14.2809 21.4239 14.3343C21.6925 14.3877 21.9392 14.5196 22.1329 14.7132C22.3265 14.9069 22.4584 15.1536 22.5118 15.4222C22.5652 15.6908 22.5378 15.9692 22.433 16.2222C22.3282 16.4752 22.1508 16.6914 21.9231 16.8436C21.6954 16.9957 21.4277 17.0769 21.1538 17.0769C20.7866 17.0769 20.4344 16.931 20.1747 16.6714C19.9151 16.4117 19.7692 16.0595 19.7692 15.6923ZM22.5961 21.2307C22.029 22.2132 21.2133 23.029 20.231 23.5962C19.2487 24.1634 18.1343 24.462 17 24.462C15.8656 24.462 14.7513 24.1634 13.769 23.5962C12.7866 23.029 11.9709 22.2132 11.4038 21.2307C11.3316 21.1259 11.2818 21.0073 11.2576 20.8823C11.2334 20.7574 11.2353 20.6288 11.2632 20.5046C11.2911 20.3804 11.3444 20.2633 11.4197 20.1607C11.495 20.058 11.5908 19.9721 11.7009 19.9083C11.811 19.8444 11.9332 19.8041 12.0596 19.7897C12.1861 19.7753 12.3142 19.7873 12.4358 19.8248C12.5575 19.8623 12.6701 19.9245 12.7665 20.0076C12.8629 20.0907 12.9411 20.1929 12.9961 20.3077C13.4027 21.0096 13.9866 21.5922 14.6893 21.9973C15.392 22.4024 16.1889 22.6156 17 22.6156C17.8111 22.6156 18.608 22.4024 19.3107 21.9973C20.0134 21.5922 20.5973 21.0096 21.0038 20.3077C21.1357 20.1164 21.3348 19.9818 21.5615 19.9309C21.7882 19.88 22.0258 19.9164 22.2268 20.033C22.4278 20.1495 22.5775 20.3375 22.6459 20.5595C22.7144 20.7816 22.6966 21.0212 22.5961 21.2307Z" fill="black"/>
</svg>
