<svg width="35" height="35" viewBox="0 0 35 35" fill="none" xmlns="http://www.w3.org/2000/svg">
<rect width="35" height="35" fill="#D9D9D9"/>
<path d="M25.8889 8H8.11111C7.81643 8 7.53381 8.12395 7.32544 8.34458C7.11706 8.56521 7 8.86445 7 9.17647V12.7059C7 13.0179 7.11706 13.3171 7.32544 13.5378C7.53381 13.7584 7.81643 13.8824 8.11111 13.8824C8.4058 13.8824 8.68841 13.7584 8.89679 13.5378C9.10516 13.3171 9.22222 13.0179 9.22222 12.7059V10.3529H15.8889V25.6471H13.6667C13.372 25.6471 13.0894 25.771 12.881 25.9916C12.6726 26.2123 12.5556 26.5115 12.5556 26.8235C12.5556 27.1355 12.6726 27.4348 12.881 27.6554C13.0894 27.8761 13.372 28 13.6667 28H20.3333C20.628 28 20.9106 27.8761 21.119 27.6554C21.3274 27.4348 21.4444 27.1355 21.4444 26.8235C21.4444 26.5115 21.3274 26.2123 21.119 25.9916C20.9106 25.771 20.628 25.6471 20.3333 25.6471H18.1111V10.3529H24.7778V12.7059C24.7778 13.0179 24.8948 13.3171 25.1032 13.5378C25.3116 13.7584 25.5942 13.8824 25.8889 13.8824C26.1836 13.8824 26.4662 13.7584 26.6746 13.5378C26.8829 13.3171 27 13.0179 27 12.7059V9.17647C27 8.86445 26.8829 8.56521 26.6746 8.34458C26.4662 8.12395 26.1836 8 25.8889 8V8Z" fill="black"/>
</svg>
